<svg xmlns="http://www.w3.org/2000/svg" xmlns:xlink="http://www.w3.org/1999/xlink" width="500" zoomAndPan="magnify" viewBox="0 0 375 374.999991" height="500" preserveAspectRatio="xMidYMid meet" version="1.0"><defs><clipPath id="1c02fd4b50"><path d="M 53 39 L 322 39 L 322 337.617188 L 53 337.617188 Z M 53 39 " clip-rule="nonzero"/></clipPath></defs><g clip-path="url(#1c02fd4b50)"><path fill="#d9c48d" d="M 320.878906 146.121094 C 320.035156 139.167969 318.992188 130.53125 314.894531 120.605469 C 310.664062 110.359375 305.285156 103.847656 300.160156 97.644531 C 291.710938 87.417969 283.8125 81.179688 276.34375 75.347656 C 265.105469 66.578125 254.617188 60.394531 246.433594 56.15625 C 240.445312 53.050781 229.839844 47.957031 215.859375 43.511719 C 215.75 43.476562 215.644531 43.441406 215.535156 43.40625 C 197.226562 37.621094 177.554688 37.621094 159.246094 43.40625 C 159.136719 43.441406 159.027344 43.476562 158.921875 43.511719 C 144.941406 47.957031 134.335938 53.050781 128.347656 56.15625 C 120.167969 60.394531 109.671875 66.578125 98.4375 75.347656 C 90.96875 81.179688 83.070312 87.417969 74.621094 97.644531 C 69.496094 103.847656 64.117188 110.359375 59.886719 120.605469 C 55.789062 130.53125 54.746094 139.167969 53.90625 146.121094 C 53.285156 151.25 52.652344 156.75 53.242188 164.089844 C 53.585938 168.394531 54.519531 175.390625 57.339844 183.394531 C 58.597656 186.960938 61.476562 192.625 67.308594 203.917969 C 69 207.1875 70.3125 209.523438 71.519531 211.570312 C 71.539062 211.597656 71.554688 211.628906 71.570312 211.65625 C 73.039062 214.136719 73.464844 217.074219 72.875 219.894531 C 72.703125 220.714844 72.574219 221.601562 72.515625 222.550781 C 72.28125 226.4375 73.285156 230.625 77.832031 237.859375 C 81.277344 243.34375 85.015625 247.582031 89.574219 252.503906 C 94.902344 258.25 99.65625 262.328125 108.960938 270.25 C 119.644531 279.351562 119.390625 278.464844 124.246094 283.117188 C 127.726562 286.449219 133.757812 292.285156 140.089844 300.867188 C 141.949219 303.386719 141.917969 303.546875 148.839844 313.292969 C 152.804688 318.875 154.429688 321.09375 157.148438 323.941406 C 159.429688 326.332031 162 328.988281 166.121094 331.484375 C 169.644531 333.617188 172.808594 334.734375 174.316406 335.257812 C 177.410156 336.328125 179.820312 336.789062 180.523438 336.921875 C 183.199219 337.414062 185.546875 337.566406 187.390625 337.585938 C 189.234375 337.566406 191.582031 337.414062 194.257812 336.921875 C 194.960938 336.789062 197.371094 336.328125 200.460938 335.257812 C 201.96875 334.734375 205.136719 333.617188 208.660156 331.484375 C 212.78125 328.988281 215.351562 326.332031 217.632812 323.941406 C 220.347656 321.09375 221.972656 318.875 225.941406 313.292969 C 232.867188 303.546875 232.832031 303.386719 234.691406 300.867188 C 241.023438 292.285156 247.054688 286.449219 250.535156 283.117188 C 255.390625 278.464844 255.132812 279.351562 265.816406 270.25 C 275.121094 262.328125 279.882812 258.25 285.207031 252.503906 C 289.769531 247.582031 293.5 243.34375 296.949219 237.859375 C 301.492188 230.625 302.5 226.4375 302.265625 222.550781 C 302.207031 221.601562 302.082031 220.714844 301.90625 219.894531 C 301.316406 217.074219 301.742188 214.136719 303.207031 211.65625 C 303.226562 211.628906 303.246094 211.597656 303.261719 211.570312 C 304.472656 209.523438 305.78125 207.1875 307.472656 203.917969 C 313.304688 192.625 316.183594 186.960938 317.441406 183.394531 C 320.265625 175.390625 321.195312 168.394531 321.539062 164.089844 C 322.128906 156.75 321.496094 151.25 320.878906 146.121094 " fill-opacity="1" fill-rule="nonzero"/></g><path fill="#1e2226" d="M 172.519531 264.816406 C 170.847656 265.835938 168.449219 266.160156 163.65625 266.8125 C 161.242188 267.140625 155.5 267.761719 147.925781 266.8125 C 139.714844 265.78125 133.804688 263.460938 128.875 261.488281 C 118.941406 257.511719 111.71875 252.75 107.828125 249.949219 C 98.863281 243.507812 92.648438 236.757812 88.769531 231.980469 C 81.53125 223.054688 77.707031 215.144531 75.480469 210.460938 C 72.257812 203.691406 68.746094 196.308594 67.058594 185.832031 C 66.070312 179.667969 64.613281 169.96875 67.945312 158.324219 C 69.769531 151.957031 72.964844 140.792969 83.453125 134.140625 C 89.722656 130.167969 96.027344 129.433594 98.519531 129.261719 C 105.0625 128.800781 109.929688 130.46875 114.027344 131.921875 C 115.878906 132.578125 124.132812 135.613281 134.632812 144.566406 C 137.023438 146.605469 145.265625 153.84375 153.464844 166.308594 C 160.394531 176.84375 163.65625 185.585938 167.644531 196.261719 C 171.320312 206.105469 174.769531 215.503906 176.730469 228.429688 C 178.324219 238.972656 181.414062 259.386719 172.519531 264.816406 " fill-opacity="1" fill-rule="nonzero"/><path fill="#807559" d="M 69.386719 133.140625 C 69.386719 133.140625 69.570312 132.847656 69.910156 132.292969 C 70.261719 131.75 70.777344 130.945312 71.5 129.964844 C 72.21875 128.984375 73.128906 127.8125 74.261719 126.542969 C 75.394531 125.269531 76.734375 123.90625 78.320312 122.515625 C 79.894531 121.128906 81.6875 119.71875 83.71875 118.410156 C 85.757812 117.09375 87.992188 115.878906 90.4375 114.84375 C 92.882812 113.824219 95.515625 112.992188 98.269531 112.507812 L 98.785156 112.417969 L 99.0625 112.375 L 100.332031 112.199219 C 101.027344 112.128906 101.753906 112.035156 102.453125 112.003906 C 103.863281 111.902344 105.285156 111.890625 106.703125 111.957031 C 109.53125 112.097656 112.347656 112.574219 115.03125 113.273438 C 116.359375 113.613281 117.683594 114.007812 118.972656 114.480469 C 120.253906 114.9375 121.5 115.453125 122.695312 116.019531 C 125.105469 117.136719 127.273438 118.457031 129.289062 119.75 C 131.316406 121.058594 133.132812 122.429688 134.734375 123.785156 C 137.949219 126.480469 140.285156 129.078125 141.835938 130.949219 C 142.605469 131.886719 143.183594 132.648438 143.566406 133.175781 C 143.957031 133.695312 144.160156 133.972656 144.160156 133.972656 C 144.160156 133.972656 143.925781 133.71875 143.484375 133.242188 C 143.054688 132.761719 142.382812 132.082031 141.542969 131.214844 C 139.835938 129.507812 137.320312 127.144531 134.019531 124.683594 C 132.375 123.457031 130.523438 122.214844 128.511719 121.019531 C 126.472656 119.832031 124.292969 118.640625 121.972656 117.617188 C 120.808594 117.109375 119.605469 116.644531 118.367188 116.234375 C 117.136719 115.832031 115.863281 115.476562 114.554688 115.144531 C 111.96875 114.488281 109.292969 114.066406 106.601562 113.949219 C 105.261719 113.878906 103.910156 113.875 102.574219 113.960938 C 101.898438 113.984375 101.257812 114.0625 100.589844 114.125 L 99.570312 114.257812 L 99.320312 114.289062 L 99.089844 114.328125 L 98.597656 114.40625 C 95.988281 114.855469 93.453125 115.542969 91.097656 116.472656 C 88.746094 117.410156 86.503906 118.488281 84.5 119.671875 C 82.492188 120.867188 80.664062 122.136719 79.046875 123.394531 C 77.4375 124.664062 76.007812 125.914062 74.808594 127.070312 C 73.609375 128.242188 72.601562 129.304688 71.808594 130.210938 C 70.210938 132.023438 69.386719 133.140625 69.386719 133.140625 " fill-opacity="1" fill-rule="nonzero"/><path fill="#807559" d="M 154.792969 147.285156 C 154.792969 147.285156 154.933594 147.460938 155.203125 147.789062 C 155.464844 148.117188 155.863281 148.59375 156.335938 149.226562 C 156.816406 149.855469 157.394531 150.621094 158.042969 151.507812 C 158.695312 152.394531 159.421875 153.402344 160.175781 154.527344 C 160.9375 155.644531 161.738281 156.878906 162.5625 158.195312 C 163.375 159.515625 164.234375 160.914062 165.054688 162.394531 C 165.890625 163.871094 166.734375 165.40625 167.539062 166.996094 C 168.347656 168.582031 169.128906 170.214844 169.890625 171.855469 C 170.632812 173.503906 171.347656 175.160156 172.019531 176.816406 C 172.699219 178.464844 173.296875 180.113281 173.871094 181.707031 C 175.003906 184.902344 175.921875 187.929688 176.613281 190.554688 C 177.316406 193.171875 177.769531 195.382812 178.097656 196.929688 C 178.265625 197.699219 178.367188 198.3125 178.441406 198.730469 C 178.515625 199.144531 178.558594 199.367188 178.558594 199.367188 C 178.558594 199.367188 178.296875 198.503906 177.847656 196.992188 C 177.625 196.238281 177.351562 195.320312 177.019531 194.273438 C 176.679688 193.230469 176.296875 192.058594 175.878906 190.773438 C 175.03125 188.214844 173.980469 185.253906 172.773438 182.113281 C 172.171875 180.542969 171.507812 178.9375 170.832031 177.308594 C 170.160156 175.679688 169.429688 174.039062 168.683594 172.410156 C 167.945312 170.773438 167.183594 169.152344 166.394531 167.574219 C 165.605469 165.992188 164.828125 164.441406 164.03125 162.957031 C 162.460938 159.984375 160.90625 157.253906 159.53125 154.9375 C 158.152344 152.625 156.984375 150.699219 156.125 149.375 C 155.28125 148.046875 154.792969 147.285156 154.792969 147.285156 " fill-opacity="1" fill-rule="nonzero"/><path fill="#1e2226" d="M 183.34375 292.984375 C 183.335938 293.050781 183.238281 293.042969 183.226562 292.976562 C 182.890625 291.109375 182.378906 289.597656 181.921875 288.484375 C 181.425781 287.261719 180.957031 286.109375 179.980469 284.816406 C 178.566406 282.9375 176.761719 281.652344 176.535156 281.492188 C 175.320312 280.640625 174.449219 280.515625 173.765625 279.351562 C 173.515625 278.921875 173.175781 277.96875 173.464844 277.242188 C 173.742188 276.542969 174.363281 276.015625 174.714844 275.902344 C 175.667969 275.589844 176.71875 275.941406 177.320312 276.117188 C 177.558594 276.183594 178.582031 276.660156 179.878906 277.765625 C 180.160156 278 181.390625 279.074219 182.359375 281.019531 C 182.832031 281.96875 183.199219 283.042969 183.460938 284.605469 C 183.988281 287.734375 183.738281 290.71875 183.34375 292.984375 " fill-opacity="1" fill-rule="nonzero"/><path fill="#1e2226" d="M 191.433594 292.984375 C 191.445312 293.050781 191.542969 293.042969 191.554688 292.976562 C 191.890625 291.109375 192.402344 289.597656 192.855469 288.484375 C 193.355469 287.261719 193.824219 286.109375 194.800781 284.816406 C 196.214844 282.9375 198.019531 281.652344 198.246094 281.492188 C 199.457031 280.640625 200.332031 280.515625 201.015625 279.351562 C 201.265625 278.921875 201.609375 277.96875 201.320312 277.242188 C 201.039062 276.542969 200.417969 276.015625 200.070312 275.902344 C 199.113281 275.589844 198.066406 275.941406 197.460938 276.117188 C 197.222656 276.183594 196.199219 276.660156 194.902344 277.765625 C 194.625 278 193.390625 279.074219 192.421875 281.019531 C 191.949219 281.96875 191.585938 283.042969 191.320312 284.605469 C 190.796875 287.734375 191.046875 290.71875 191.433594 292.984375 " fill-opacity="1" fill-rule="nonzero"/><path fill="#ffffff" d="M 93.425781 177.734375 C 93.765625 176.375 93.726562 176.988281 94.0625 174.65625 C 94.367188 172.53125 94.5625 171.042969 94.949219 169.886719 C 96.078125 166.507812 96.632812 165.878906 96.96875 163.980469 C 97.179688 162.789062 97.597656 160.425781 96.191406 158.324219 C 94.828125 156.28125 92.597656 155.761719 92.097656 155.660156 C 89.535156 155.140625 87.46875 156.347656 86.003906 157.214844 C 83.613281 158.617188 82.351562 160.464844 82.011719 160.984375 C 80.625 163.121094 79.949219 165.144531 79.5625 168.417969 C 79.234375 171.226562 79.144531 173.980469 80.101562 177.359375 C 80.742188 179.609375 81.496094 181.316406 83.234375 182.503906 C 85.132812 183.804688 88.128906 184.148438 90.195312 183.058594 C 92.808594 181.6875 93.191406 178.667969 93.425781 177.734375 " fill-opacity="1" fill-rule="nonzero"/><path fill="#ffffff" d="M 93.230469 194.875 C 93.230469 197.246094 91.3125 199.164062 88.945312 199.164062 C 86.582031 199.164062 84.664062 197.246094 84.664062 194.875 C 84.664062 192.507812 86.582031 190.585938 88.945312 190.585938 C 91.3125 190.585938 93.230469 192.507812 93.230469 194.875 " fill-opacity="1" fill-rule="nonzero"/><path fill="#1e2226" d="M 201.761719 264.816406 C 203.433594 265.835938 205.832031 266.160156 210.625 266.8125 C 213.042969 267.140625 218.78125 267.761719 226.355469 266.8125 C 234.570312 265.78125 240.476562 263.460938 245.410156 261.488281 C 255.34375 257.511719 262.5625 252.75 266.453125 249.949219 C 275.417969 243.507812 281.632812 236.757812 285.511719 231.980469 C 292.746094 223.054688 296.574219 215.144531 298.800781 210.460938 C 302.027344 203.691406 305.535156 196.308594 307.222656 185.832031 C 308.214844 179.667969 309.667969 169.96875 306.335938 158.324219 C 304.515625 151.957031 301.316406 140.792969 290.828125 134.140625 C 284.558594 130.167969 278.253906 129.433594 275.761719 129.261719 C 269.21875 128.800781 264.351562 130.46875 260.253906 131.921875 C 258.40625 132.578125 250.148438 135.613281 239.648438 144.566406 C 237.257812 146.605469 229.015625 153.84375 220.816406 166.308594 C 213.886719 176.84375 210.625 185.585938 206.636719 196.261719 C 202.960938 206.105469 199.511719 215.503906 197.554688 228.429688 C 195.957031 238.972656 192.867188 259.386719 201.761719 264.816406 " fill-opacity="1" fill-rule="nonzero"/><path fill="#1e2226" d="M 206.742188 305.355469 C 206.6875 305.917969 198.003906 301.453125 187.140625 301.535156 C 176.277344 301.453125 167.59375 305.917969 167.542969 305.355469 C 167.457031 304.960938 176.140625 299.65625 187.140625 299.730469 C 198.140625 299.65625 206.824219 304.960938 206.742188 305.355469 " fill-opacity="1" fill-rule="nonzero"/><path fill="#807559" d="M 143.484375 284.402344 C 143.484375 284.402344 143.699219 284.484375 144.09375 284.636719 C 144.496094 284.78125 145.070312 285.039062 145.769531 285.417969 C 146.472656 285.808594 147.296875 286.335938 148.164062 287.035156 C 149.03125 287.742188 149.953125 288.613281 150.839844 289.667969 C 152.625 291.773438 154.320312 294.542969 155.691406 297.695312 C 156.375 299.261719 157.03125 300.914062 157.65625 302.585938 C 158.285156 304.261719 158.917969 305.960938 159.609375 307.625 C 160.285156 309.296875 161.039062 310.933594 161.886719 312.476562 C 162.742188 314.015625 163.710938 315.46875 164.761719 316.761719 C 165.820312 318.058594 166.945312 319.238281 168.089844 320.273438 C 169.226562 321.308594 170.402344 322.183594 171.523438 322.929688 C 173.777344 324.421875 175.832031 325.382812 177.308594 325.949219 C 177.679688 326.089844 178.011719 326.214844 178.296875 326.324219 C 178.589844 326.421875 178.839844 326.503906 179.042969 326.570312 C 179.445312 326.703125 179.660156 326.773438 179.660156 326.773438 C 179.660156 326.773438 179.441406 326.722656 179.027344 326.621094 C 178.609375 326.53125 178.003906 326.378906 177.242188 326.136719 C 176.484375 325.890625 175.574219 325.5625 174.550781 325.125 C 173.53125 324.675781 172.390625 324.136719 171.222656 323.402344 C 168.878906 321.984375 166.316406 319.972656 164.085938 317.320312 C 162.96875 315.992188 161.929688 314.53125 161.050781 312.945312 C 160.160156 311.363281 159.382812 309.699219 158.683594 308.007812 C 157.308594 304.613281 156.183594 301.164062 154.882812 298.039062 C 153.597656 294.921875 152.085938 292.132812 150.40625 290.023438 C 149.574219 288.96875 148.726562 288.0625 147.921875 287.316406 C 147.113281 286.578125 146.335938 286.011719 145.671875 285.585938 C 145.003906 285.175781 144.464844 284.859375 144.074219 284.6875 C 143.691406 284.5 143.484375 284.402344 143.484375 284.402344 " fill-opacity="1" fill-rule="nonzero"/><path fill="#807559" d="M 163.140625 293.351562 C 163.140625 293.351562 163.0625 293.121094 162.921875 292.679688 C 162.789062 292.242188 162.550781 291.613281 162.234375 290.828125 C 161.921875 290.035156 161.464844 289.105469 160.890625 288.070312 C 160.3125 287.039062 159.570312 285.929688 158.679688 284.789062 C 157.785156 283.648438 156.71875 282.492188 155.46875 281.410156 C 154.210938 280.320312 152.785156 279.347656 151.199219 278.457031 C 149.636719 277.582031 147.910156 276.84375 146.125 276.1875 C 144.34375 275.527344 142.480469 274.96875 140.609375 274.433594 C 138.738281 273.890625 136.855469 273.367188 135.007812 272.800781 C 133.167969 272.242188 131.355469 271.597656 129.664062 270.890625 C 126.246094 269.457031 123.269531 267.703125 120.847656 266.023438 C 118.425781 264.347656 116.59375 262.703125 115.347656 261.53125 C 114.730469 260.9375 114.257812 260.457031 113.945312 260.121094 C 113.628906 259.792969 113.460938 259.613281 113.460938 259.613281 C 113.460938 259.613281 113.644531 259.777344 113.984375 260.082031 C 114.316406 260.394531 114.835938 260.824219 115.476562 261.386719 C 116.132812 261.929688 116.933594 262.589844 117.886719 263.292969 C 118.835938 264.007812 119.941406 264.761719 121.15625 265.554688 C 123.601562 267.140625 126.625 268.726562 129.988281 270.074219 C 133.359375 271.421875 137.121094 272.402344 140.886719 273.472656 C 142.765625 274.023438 144.644531 274.601562 146.460938 275.285156 C 148.285156 275.960938 150.019531 276.761719 151.640625 277.703125 C 153.238281 278.617188 154.707031 279.714844 155.949219 280.867188 C 157.195312 282.03125 158.25 283.253906 159.125 284.449219 C 160.003906 285.644531 160.695312 286.816406 161.214844 287.898438 C 161.738281 288.980469 162.144531 289.941406 162.414062 290.757812 C 162.699219 291.570312 162.871094 292.222656 162.976562 292.667969 C 163.082031 293.113281 163.140625 293.351562 163.140625 293.351562 " fill-opacity="1" fill-rule="nonzero"/><path fill="#807559" d="M 128.789062 88.523438 C 128.789062 88.523438 129.085938 88.101562 129.605469 87.363281 C 129.867188 86.992188 130.199219 86.5625 130.605469 86.078125 C 130.804688 85.835938 131.019531 85.570312 131.246094 85.296875 C 131.476562 85.03125 131.734375 84.765625 131.996094 84.476562 C 132.515625 83.894531 133.109375 83.296875 133.757812 82.6875 C 134.394531 82.058594 135.117188 81.453125 135.859375 80.824219 C 136.632812 80.234375 137.402344 79.582031 138.261719 79.015625 C 139.089844 78.417969 139.984375 77.878906 140.859375 77.324219 C 141.769531 76.820312 142.667969 76.292969 143.59375 75.855469 C 144.5 75.375 145.441406 75.011719 146.332031 74.621094 C 147.242188 74.269531 148.121094 73.925781 148.972656 73.675781 C 149.398438 73.539062 149.8125 73.410156 150.214844 73.289062 C 150.613281 73.171875 151.015625 73.085938 151.390625 72.988281 C 151.765625 72.894531 152.125 72.796875 152.46875 72.722656 C 152.816406 72.65625 153.148438 72.597656 153.457031 72.539062 C 154.074219 72.417969 154.617188 72.328125 155.070312 72.28125 C 155.964844 72.171875 156.476562 72.121094 156.476562 72.121094 C 156.476562 72.121094 155.984375 72.273438 155.121094 72.542969 C 154.691406 72.65625 154.175781 72.835938 153.582031 73.035156 C 152.992188 73.222656 152.328125 73.449219 151.613281 73.71875 C 150.890625 73.96875 150.125 74.28125 149.3125 74.605469 C 148.5 74.917969 147.671875 75.328125 146.796875 75.699219 C 145.941406 76.109375 145.058594 76.53125 144.175781 77 C 143.28125 77.441406 142.417969 77.96875 141.535156 78.46875 C 140.675781 79 139.800781 79.503906 138.980469 80.078125 C 138.148438 80.625 137.351562 81.195312 136.578125 81.75 C 135.835938 82.335938 135.074219 82.863281 134.410156 83.429688 C 133.738281 83.988281 133.09375 84.507812 132.527344 85.019531 C 131.945312 85.519531 131.429688 85.992188 130.980469 86.421875 C 130.523438 86.84375 130.117188 87.210938 129.804688 87.535156 C 129.15625 88.164062 128.789062 88.523438 128.789062 88.523438 " fill-opacity="1" fill-rule="nonzero"/><path fill="#807559" d="M 104.761719 94.15625 C 104.761719 94.15625 105.515625 93.183594 106.828125 91.476562 C 107.160156 91.054688 107.527344 90.589844 107.929688 90.078125 C 108.355469 89.585938 108.8125 89.050781 109.300781 88.484375 C 109.792969 87.910156 110.3125 87.304688 110.859375 86.664062 C 111.414062 86.023438 112.046875 85.40625 112.679688 84.730469 C 113.320312 84.066406 113.988281 83.367188 114.679688 82.652344 C 115.402344 81.964844 116.152344 81.253906 116.921875 80.523438 C 117.308594 80.160156 117.699219 79.792969 118.09375 79.417969 C 118.496094 79.050781 118.921875 78.699219 119.339844 78.332031 C 120.1875 77.609375 121.054688 76.871094 121.933594 76.117188 C 122.84375 75.40625 123.773438 74.683594 124.714844 73.953125 C 125.1875 73.585938 125.652344 73.207031 126.144531 72.859375 C 126.636719 72.511719 127.132812 72.164062 127.632812 71.816406 C 128.640625 71.132812 129.617188 70.386719 130.664062 69.742188 C 131.707031 69.085938 132.746094 68.425781 133.792969 67.761719 C 134.847656 67.121094 135.9375 66.539062 137.007812 65.929688 C 137.546875 65.632812 138.074219 65.316406 138.617188 65.03125 C 139.164062 64.757812 139.710938 64.484375 140.253906 64.210938 C 141.339844 63.671875 142.402344 63.089844 143.5 62.621094 C 144.589844 62.140625 145.667969 61.667969 146.726562 61.203125 C 147.785156 60.730469 148.863281 60.355469 149.898438 59.949219 C 150.941406 59.558594 151.953125 59.152344 152.96875 58.84375 C 153.980469 58.515625 154.957031 58.195312 155.90625 57.890625 C 156.855469 57.574219 157.796875 57.363281 158.683594 57.113281 C 159.578125 56.878906 160.4375 56.648438 161.25 56.433594 C 162.074219 56.261719 162.855469 56.101562 163.589844 55.945312 C 164.328125 55.792969 165.015625 55.652344 165.648438 55.519531 C 166.285156 55.386719 166.878906 55.316406 167.40625 55.226562 C 169.535156 54.910156 170.75 54.730469 170.75 54.730469 C 170.75 54.730469 169.554688 55.003906 167.457031 55.480469 C 166.933594 55.601562 166.351562 55.710938 165.726562 55.878906 C 165.105469 56.050781 164.429688 56.230469 163.707031 56.429688 C 162.988281 56.625 162.222656 56.835938 161.414062 57.054688 C 160.613281 57.304688 159.773438 57.570312 158.898438 57.847656 C 157.140625 58.367188 155.277344 59.066406 153.304688 59.78125 C 152.308594 60.117188 151.316406 60.546875 150.300781 60.96875 C 149.289062 61.410156 148.222656 61.789062 147.191406 62.277344 C 146.152344 62.757812 145.09375 63.246094 144.027344 63.746094 C 143.488281 63.980469 142.960938 64.257812 142.433594 64.535156 C 141.902344 64.804688 141.371094 65.078125 140.839844 65.355469 C 140.300781 65.628906 139.765625 65.902344 139.226562 66.175781 C 138.695312 66.464844 138.175781 66.773438 137.644531 67.074219 C 136.59375 67.683594 135.519531 68.265625 134.476562 68.90625 C 133.441406 69.546875 132.40625 70.195312 131.375 70.839844 C 130.332031 71.46875 129.363281 72.203125 128.363281 72.871094 C 126.359375 74.195312 124.507812 75.671875 122.660156 77.03125 C 121.773438 77.753906 120.902344 78.472656 120.046875 79.167969 C 119.621094 79.515625 119.191406 79.851562 118.777344 80.203125 C 118.378906 80.5625 117.976562 80.914062 117.585938 81.261719 C 116.796875 81.957031 116.03125 82.636719 115.289062 83.292969 C 114.574219 83.972656 113.882812 84.636719 113.21875 85.269531 C 112.558594 85.910156 111.910156 86.503906 111.324219 87.105469 C 110.742188 87.703125 110.1875 88.273438 109.667969 88.808594 C 109.148438 89.347656 108.660156 89.851562 108.210938 90.3125 C 107.777344 90.796875 107.382812 91.242188 107.027344 91.640625 C 105.585938 93.242188 104.761719 94.15625 104.761719 94.15625 " fill-opacity="1" fill-rule="nonzero"/><path fill="#807559" d="M 305.394531 133.140625 C 305.394531 133.140625 305.210938 132.847656 304.871094 132.292969 C 304.519531 131.75 304.003906 130.945312 303.28125 129.964844 C 302.5625 128.984375 301.65625 127.8125 300.519531 126.542969 C 299.382812 125.269531 298.046875 123.90625 296.460938 122.515625 C 294.886719 121.128906 293.09375 119.71875 291.0625 118.410156 C 289.023438 117.09375 286.789062 115.878906 284.34375 114.84375 C 281.898438 113.824219 279.261719 112.992188 276.511719 112.507812 L 275.996094 112.417969 L 275.71875 112.375 L 274.449219 112.199219 C 273.753906 112.128906 273.027344 112.035156 272.328125 112.003906 C 270.917969 111.902344 269.496094 111.890625 268.082031 111.957031 C 265.246094 112.097656 262.433594 112.574219 259.75 113.273438 C 258.421875 113.613281 257.09375 114.007812 255.808594 114.480469 C 254.527344 114.9375 253.277344 115.453125 252.082031 116.019531 C 249.675781 117.136719 247.507812 118.457031 245.492188 119.75 C 243.464844 121.058594 241.652344 122.429688 240.050781 123.785156 C 236.835938 126.480469 234.492188 129.078125 232.945312 130.949219 C 232.171875 131.886719 231.59375 132.648438 231.214844 133.175781 C 230.828125 133.695312 230.621094 133.972656 230.621094 133.972656 C 230.621094 133.972656 230.855469 133.71875 231.296875 133.242188 C 231.726562 132.761719 232.398438 132.082031 233.238281 131.214844 C 234.945312 129.507812 237.460938 127.144531 240.757812 124.683594 C 242.402344 123.457031 244.257812 122.214844 246.269531 121.019531 C 248.308594 119.832031 250.488281 118.640625 252.808594 117.617188 C 253.96875 117.109375 255.175781 116.644531 256.414062 116.234375 C 257.644531 115.832031 258.917969 115.476562 260.226562 115.144531 C 262.8125 114.488281 265.484375 114.066406 268.175781 113.949219 C 269.519531 113.878906 270.871094 113.875 272.207031 113.960938 C 272.886719 113.984375 273.523438 114.0625 274.191406 114.125 L 275.207031 114.257812 L 275.464844 114.289062 L 275.691406 114.328125 L 276.179688 114.40625 C 278.792969 114.855469 281.328125 115.542969 283.6875 116.472656 C 286.03125 117.410156 288.277344 118.488281 290.28125 119.671875 C 292.289062 120.867188 294.117188 122.136719 295.738281 123.394531 C 297.34375 124.664062 298.773438 125.914062 299.972656 127.070312 C 301.171875 128.242188 302.179688 129.304688 302.972656 130.210938 C 304.570312 132.023438 305.394531 133.140625 305.394531 133.140625 " fill-opacity="1" fill-rule="nonzero"/><path fill="#807559" d="M 219.988281 147.285156 C 219.988281 147.285156 219.84375 147.460938 219.578125 147.789062 C 219.316406 148.117188 218.917969 148.59375 218.445312 149.226562 C 217.964844 149.855469 217.386719 150.621094 216.738281 151.507812 C 216.085938 152.394531 215.359375 153.402344 214.609375 154.527344 C 213.84375 155.644531 213.042969 156.878906 212.21875 158.195312 C 211.40625 159.515625 210.546875 160.914062 209.722656 162.394531 C 208.890625 163.871094 208.042969 165.40625 207.242188 166.996094 C 206.433594 168.582031 205.648438 170.214844 204.886719 171.855469 C 204.148438 173.503906 203.429688 175.160156 202.761719 176.816406 C 202.082031 178.464844 201.484375 180.113281 200.910156 181.707031 C 199.78125 184.902344 198.855469 187.929688 198.167969 190.554688 C 197.464844 193.171875 197.007812 195.382812 196.679688 196.929688 C 196.515625 197.699219 196.414062 198.3125 196.339844 198.730469 C 196.265625 199.144531 196.226562 199.367188 196.226562 199.367188 C 196.226562 199.367188 196.480469 198.503906 196.933594 196.992188 C 197.152344 196.238281 197.429688 195.320312 197.765625 194.273438 C 198.101562 193.230469 198.484375 192.058594 198.902344 190.773438 C 199.75 188.214844 200.800781 185.253906 202.007812 182.113281 C 202.609375 180.542969 203.273438 178.9375 203.949219 177.308594 C 204.621094 175.679688 205.351562 174.039062 206.097656 172.410156 C 206.839844 170.773438 207.601562 169.152344 208.390625 167.574219 C 209.179688 165.992188 209.953125 164.441406 210.746094 162.957031 C 212.320312 159.984375 213.875 157.253906 215.246094 154.9375 C 216.628906 152.625 217.800781 150.699219 218.65625 149.375 C 219.503906 148.046875 219.988281 147.285156 219.988281 147.285156 " fill-opacity="1" fill-rule="nonzero"/><path fill="#ffffff" d="M 281.359375 177.734375 C 281.015625 176.375 281.054688 176.988281 280.71875 174.65625 C 280.414062 172.53125 280.21875 171.042969 279.832031 169.886719 C 278.703125 166.507812 278.148438 165.878906 277.8125 163.980469 C 277.601562 162.789062 277.183594 160.425781 278.585938 158.324219 C 279.949219 156.28125 282.183594 155.761719 282.683594 155.660156 C 285.25 155.140625 287.308594 156.347656 288.777344 157.214844 C 291.167969 158.617188 292.429688 160.464844 292.765625 160.984375 C 294.15625 163.121094 294.835938 165.144531 295.214844 168.417969 C 295.542969 171.226562 295.636719 173.980469 294.675781 177.359375 C 294.039062 179.609375 293.285156 181.316406 291.546875 182.503906 C 289.648438 183.804688 286.652344 184.148438 284.582031 183.058594 C 281.972656 181.6875 281.589844 178.667969 281.359375 177.734375 " fill-opacity="1" fill-rule="nonzero"/><path fill="#ffffff" d="M 281.550781 194.875 C 281.550781 197.246094 283.46875 199.164062 285.832031 199.164062 C 288.199219 199.164062 290.117188 197.246094 290.117188 194.875 C 290.117188 192.507812 288.199219 190.585938 285.832031 190.585938 C 283.46875 190.585938 281.550781 192.507812 281.550781 194.875 " fill-opacity="1" fill-rule="nonzero"/><path fill="#807559" d="M 231.292969 284.402344 C 231.292969 284.402344 231.089844 284.5 230.707031 284.6875 C 230.316406 284.859375 229.777344 285.175781 229.109375 285.585938 C 228.441406 286.011719 227.664062 286.578125 226.855469 287.316406 C 226.054688 288.0625 225.207031 288.96875 224.375 290.023438 C 222.695312 292.132812 221.179688 294.921875 219.894531 298.039062 C 218.601562 301.164062 217.472656 304.613281 216.09375 308.007812 C 215.398438 309.699219 214.621094 311.363281 213.730469 312.945312 C 212.851562 314.53125 211.808594 315.992188 210.691406 317.320312 C 208.464844 319.972656 205.902344 321.984375 203.554688 323.402344 C 202.390625 324.136719 201.246094 324.675781 200.230469 325.125 C 199.207031 325.5625 198.292969 325.890625 197.539062 326.136719 C 196.777344 326.378906 196.171875 326.53125 195.753906 326.621094 C 195.339844 326.722656 195.121094 326.773438 195.121094 326.773438 C 195.121094 326.773438 195.335938 326.703125 195.738281 326.570312 C 195.941406 326.503906 196.1875 326.421875 196.480469 326.324219 C 196.769531 326.214844 197.101562 326.089844 197.472656 325.949219 C 198.949219 325.382812 201.007812 324.421875 203.253906 322.929688 C 204.375 322.183594 205.550781 321.308594 206.691406 320.273438 C 207.835938 319.238281 208.957031 318.058594 210.015625 316.761719 C 211.070312 315.46875 212.035156 314.015625 212.890625 312.476562 C 213.746094 310.933594 214.496094 309.296875 215.171875 307.625 C 215.863281 305.960938 216.496094 304.261719 217.125 302.585938 C 217.75 300.914062 218.40625 299.261719 219.089844 297.695312 C 220.460938 294.542969 222.15625 291.773438 223.941406 289.667969 C 224.824219 288.613281 225.75 287.742188 226.617188 287.035156 C 227.484375 286.335938 228.3125 285.808594 229.007812 285.417969 C 229.710938 285.039062 230.285156 284.78125 230.6875 284.636719 C 231.082031 284.484375 231.292969 284.402344 231.292969 284.402344 " fill-opacity="1" fill-rule="nonzero"/><path fill="#807559" d="M 211.644531 293.351562 C 211.644531 293.351562 211.699219 293.113281 211.804688 292.667969 C 211.910156 292.222656 212.082031 291.570312 212.367188 290.757812 C 212.632812 289.941406 213.042969 288.980469 213.5625 287.898438 C 214.085938 286.816406 214.777344 285.644531 215.65625 284.449219 C 216.527344 283.253906 217.582031 282.03125 218.832031 280.867188 C 220.074219 279.714844 221.542969 278.617188 223.136719 277.703125 C 224.757812 276.761719 226.496094 275.960938 228.320312 275.285156 C 230.140625 274.601562 232.015625 274.023438 233.894531 273.472656 C 237.660156 272.402344 241.417969 271.421875 244.792969 270.074219 C 248.15625 268.726562 251.179688 267.140625 253.621094 265.554688 C 254.839844 264.761719 255.945312 264.007812 256.894531 263.292969 C 257.847656 262.589844 258.648438 261.929688 259.304688 261.386719 C 259.945312 260.824219 260.464844 260.394531 260.796875 260.082031 C 261.136719 259.777344 261.320312 259.613281 261.320312 259.613281 C 261.320312 259.613281 261.148438 259.792969 260.835938 260.121094 C 260.523438 260.457031 260.050781 260.9375 259.433594 261.53125 C 258.1875 262.703125 256.355469 264.347656 253.933594 266.023438 C 251.511719 267.703125 248.535156 269.457031 245.117188 270.890625 C 243.429688 271.597656 241.613281 272.242188 239.773438 272.800781 C 237.925781 273.367188 236.042969 273.890625 234.171875 274.433594 C 232.300781 274.96875 230.441406 275.527344 228.652344 276.1875 C 226.875 276.84375 225.144531 277.582031 223.582031 278.457031 C 221.996094 279.347656 220.570312 280.320312 219.316406 281.410156 C 218.0625 282.492188 216.996094 283.648438 216.097656 284.789062 C 215.210938 285.929688 214.46875 287.039062 213.890625 288.070312 C 213.316406 289.105469 212.859375 290.035156 212.546875 290.828125 C 212.226562 291.613281 211.992188 292.242188 211.855469 292.679688 C 211.71875 293.121094 211.644531 293.351562 211.644531 293.351562 " fill-opacity="1" fill-rule="nonzero"/><path fill="#807559" d="M 245.996094 88.523438 C 245.996094 88.523438 245.621094 88.164062 244.976562 87.535156 C 244.660156 87.210938 244.253906 86.84375 243.804688 86.421875 C 243.351562 85.992188 242.832031 85.519531 242.253906 85.019531 C 241.6875 84.507812 241.042969 83.988281 240.371094 83.429688 C 239.703125 82.863281 238.949219 82.335938 238.203125 81.75 C 237.429688 81.195312 236.632812 80.625 235.796875 80.078125 C 234.980469 79.503906 234.105469 79 233.242188 78.46875 C 232.367188 77.96875 231.5 77.441406 230.601562 77 C 229.726562 76.53125 228.839844 76.109375 227.984375 75.699219 C 227.109375 75.328125 226.28125 74.917969 225.46875 74.605469 C 224.65625 74.28125 223.890625 73.96875 223.167969 73.71875 C 222.453125 73.449219 221.792969 73.222656 221.195312 73.035156 C 220.605469 72.835938 220.089844 72.65625 219.65625 72.542969 C 218.796875 72.273438 218.304688 72.121094 218.304688 72.121094 C 218.304688 72.121094 218.816406 72.171875 219.714844 72.28125 C 220.164062 72.328125 220.703125 72.417969 221.324219 72.539062 C 221.632812 72.597656 221.964844 72.65625 222.308594 72.722656 C 222.65625 72.796875 223.015625 72.894531 223.394531 72.988281 C 223.769531 73.085938 224.164062 73.171875 224.566406 73.289062 C 224.96875 73.410156 225.382812 73.539062 225.808594 73.675781 C 226.660156 73.925781 227.539062 74.269531 228.449219 74.621094 C 229.339844 75.011719 230.28125 75.375 231.1875 75.855469 C 232.109375 76.292969 233.007812 76.820312 233.921875 77.324219 C 234.796875 77.878906 235.691406 78.417969 236.519531 79.015625 C 237.375 79.582031 238.148438 80.234375 238.921875 80.824219 C 239.664062 81.453125 240.386719 82.058594 241.019531 82.6875 C 241.671875 83.296875 242.265625 83.894531 242.785156 84.476562 C 243.046875 84.765625 243.304688 85.03125 243.535156 85.296875 C 243.761719 85.570312 243.972656 85.835938 244.175781 86.078125 C 244.582031 86.5625 244.917969 86.992188 245.175781 87.363281 C 245.695312 88.101562 245.996094 88.523438 245.996094 88.523438 " fill-opacity="1" fill-rule="nonzero"/><path fill="#807559" d="M 270.019531 94.15625 C 270.019531 94.15625 269.195312 93.242188 267.753906 91.640625 C 267.398438 91.242188 267.003906 90.796875 266.570312 90.3125 C 266.117188 89.851562 265.632812 89.347656 265.113281 88.808594 C 264.589844 88.273438 264.039062 87.703125 263.457031 87.105469 C 262.875 86.503906 262.222656 85.910156 261.5625 85.269531 C 260.898438 84.636719 260.207031 83.972656 259.492188 83.292969 C 258.75 82.636719 257.984375 81.957031 257.195312 81.261719 C 256.804688 80.914062 256.40625 80.5625 256 80.203125 C 255.59375 79.851562 255.160156 79.515625 254.734375 79.167969 C 253.878906 78.472656 253.007812 77.753906 252.117188 77.03125 C 250.273438 75.671875 248.421875 74.195312 246.417969 72.871094 C 245.417969 72.203125 244.445312 71.46875 243.40625 70.839844 C 242.375 70.195312 241.339844 69.546875 240.304688 68.90625 C 239.261719 68.265625 238.1875 67.683594 237.136719 67.074219 C 236.609375 66.773438 236.085938 66.464844 235.554688 66.175781 C 235.015625 65.902344 234.476562 65.628906 233.945312 65.355469 C 233.40625 65.078125 232.875 64.804688 232.34375 64.535156 C 231.816406 64.257812 231.292969 63.980469 230.753906 63.746094 C 229.6875 63.246094 228.628906 62.757812 227.589844 62.277344 C 226.554688 61.789062 225.492188 61.410156 224.484375 60.96875 C 223.460938 60.546875 222.472656 60.117188 221.480469 59.78125 C 219.503906 59.066406 217.640625 58.367188 215.878906 57.847656 C 215.003906 57.570312 214.164062 57.304688 213.367188 57.054688 C 212.558594 56.835938 211.792969 56.625 211.074219 56.429688 C 210.355469 56.230469 209.679688 56.050781 209.054688 55.878906 C 208.429688 55.710938 207.84375 55.601562 207.324219 55.480469 C 205.226562 55.003906 204.027344 54.730469 204.027344 54.730469 C 204.027344 54.730469 205.246094 54.910156 207.375 55.226562 C 207.902344 55.316406 208.496094 55.386719 209.132812 55.519531 C 209.765625 55.652344 210.453125 55.792969 211.191406 55.945312 C 211.925781 56.101562 212.707031 56.261719 213.53125 56.433594 C 214.347656 56.648438 215.199219 56.878906 216.09375 57.113281 C 216.984375 57.363281 217.925781 57.574219 218.875 57.890625 C 219.824219 58.195312 220.804688 58.515625 221.8125 58.84375 C 222.828125 59.152344 223.839844 59.558594 224.882812 59.949219 C 225.921875 60.355469 226.996094 60.730469 228.054688 61.203125 C 229.113281 61.667969 230.1875 62.140625 231.28125 62.621094 C 232.378906 63.089844 233.4375 63.671875 234.53125 64.210938 C 235.070312 64.484375 235.617188 64.757812 236.164062 65.03125 C 236.707031 65.316406 237.234375 65.632812 237.773438 65.929688 C 238.839844 66.539062 239.933594 67.121094 240.988281 67.761719 C 242.035156 68.425781 243.078125 69.085938 244.117188 69.742188 C 245.167969 70.386719 246.144531 71.132812 247.148438 71.816406 C 247.648438 72.164062 248.144531 72.511719 248.636719 72.859375 C 249.128906 73.207031 249.589844 73.585938 250.066406 73.953125 C 251.003906 74.683594 251.933594 75.40625 252.847656 76.117188 C 253.726562 76.871094 254.589844 77.609375 255.441406 78.332031 C 255.859375 78.699219 256.28125 79.050781 256.683594 79.417969 C 257.082031 79.792969 257.472656 80.160156 257.855469 80.523438 C 258.628906 81.253906 259.375 81.964844 260.101562 82.652344 C 260.792969 83.367188 261.460938 84.066406 262.101562 84.730469 C 262.734375 85.40625 263.367188 86.023438 263.917969 86.664062 C 264.46875 87.304688 264.992188 87.910156 265.480469 88.484375 C 265.96875 89.050781 266.425781 89.585938 266.851562 90.078125 C 267.25 90.589844 267.617188 91.054688 267.953125 91.476562 C 269.269531 93.183594 270.019531 94.15625 270.019531 94.15625 " fill-opacity="1" fill-rule="nonzero"/></svg>